<svg width="800" height="800" viewBox="0 0 48 48" xmlns="http://www.w3.org/2000/svg" xml:space="preserve">
  <path d="M0-.019h48v48H0z" fill="none"/>
  <path d="M36.019 8A3.986 3.986 0 0 1 40 11.981v24.038A3.986 3.986 0 0 1 36.019 40H11.981A3.986 3.986 0 0 1 8 36.019V11.981A3.986 3.986 0 0 1 11.981 8zm0-4H11.981A7.98 7.98 0 0 0 4 11.981v24.038A7.98 7.98 0 0 0 11.981 44h24.038A7.98 7.98 0 0 0 44 36.019V11.981A7.98 7.98 0 0 0 36.019 4"/>
  <path d="M24 34c-5.514 0-10-4.486-10-10s4.486-10 10-10 10 4.486 10 10-4.486 10-10 10m0-16c-3.309 0-6 2.691-6 6s2.691 6 6 6 6-2.691 6-6-2.691-6-6-6"/>
  <circle cx="35" cy="13" r="2"/>
</svg>
