<svg width="800" height="800" viewBox="0 0 32 32" fill="none" xmlns="http://www.w3.org/2000/svg">
  <g clip-path="url(#a)">
    <path d="M8.09 24.96.366 18.834l3.84-7.131L15.222 16z" fill="url(#b)"/>
    <path d="m32 8.549-.594 18.514L19.109 32l-7.406-4.754L22.537 16 17.783 5.623l4.252-5.12z" fill="url(#c)"/>
    <path d="m32 8.549-9.737 11.52-4.48-14.446 4.252-5.12z" fill="url(#d)"/>
    <path d="M15.406 26.56 2.56 31.223 4.617 24l2.697-8.869L0 12.663 4.617 0l10.057 1.234 9.875 11.292z" fill="url(#e)"/>
    <path d="M6.263 6.171H26.01V25.92H6.263z" fill="#000"/>
    <path d="M8.092 22.217h7.406v1.235H8.092zM13.44 10.24V8.731H9.325v1.509h1.189v5.166H9.325v1.508h4.115v-1.508h-1.143V10.24zm3.931 6.811c-.64 0-1.188-.137-1.6-.365a4 4 0 0 1-1.051-.869l1.143-1.28c.228.274.457.457.685.594.229.138.503.229.777.229.32 0 .595-.091.823-.32.183-.229.275-.549.275-1.051V8.73h1.828v5.349c0 .503-.046.914-.183 1.28s-.32.64-.594.914c-.229.229-.549.457-.914.549a3.2 3.2 0 0 1-1.189.228" fill="#fff"/>
  </g>
  <defs>
    <linearGradient id="b" x1=".361" y1="18.326" x2="15.23" y2="18.326" gradientUnits="userSpaceOnUse">
      <stop offset=".258" stop-color="#F97A12"/>
      <stop offset=".459" stop-color="#B07B58"/>
      <stop offset=".724" stop-color="#577BAE"/>
      <stop offset=".91" stop-color="#1E7CE5"/>
      <stop offset="1" stop-color="#087CFA"/>
    </linearGradient>
    <linearGradient id="c" x1="11.78" y1="11.374" x2="36.308" y2="24.946" gradientUnits="userSpaceOnUse">
      <stop stop-color="#F97A12"/>
      <stop offset=".072" stop-color="#CB7A3E"/>
      <stop offset=".154" stop-color="#9E7B6A"/>
      <stop offset=".242" stop-color="#757B91"/>
      <stop offset=".334" stop-color="#537BB1"/>
      <stop offset=".432" stop-color="#387CCC"/>
      <stop offset=".538" stop-color="#237CE0"/>
      <stop offset=".655" stop-color="#147CEF"/>
      <stop offset=".792" stop-color="#0B7CF7"/>
      <stop offset="1" stop-color="#087CFA"/>
    </linearGradient>
    <linearGradient id="d" x1="28.905" y1="19.618" x2="22.076" y2="-.786" gradientUnits="userSpaceOnUse">
      <stop stop-color="#FE315D"/>
      <stop offset=".078" stop-color="#CB417E"/>
      <stop offset=".16" stop-color="#9E4E9B"/>
      <stop offset=".247" stop-color="#755BB4"/>
      <stop offset=".339" stop-color="#5365CA"/>
      <stop offset=".436" stop-color="#386DDB"/>
      <stop offset=".541" stop-color="#2374E9"/>
      <stop offset=".658" stop-color="#1478F3"/>
      <stop offset=".794" stop-color="#0B7BF8"/>
      <stop offset="1" stop-color="#087CFA"/>
    </linearGradient>
    <linearGradient id="e" x1="4.901" y1="7.531" x2="25.382" y2="41.408" gradientUnits="userSpaceOnUse">
      <stop stop-color="#FE315D"/>
      <stop offset=".04" stop-color="#F63462"/>
      <stop offset=".104" stop-color="#DF3A71"/>
      <stop offset=".167" stop-color="#C24383"/>
      <stop offset=".291" stop-color="#AD4A91"/>
      <stop offset=".55" stop-color="#755BB4"/>
      <stop offset=".917" stop-color="#1D76ED"/>
      <stop offset="1" stop-color="#087CFA"/>
    </linearGradient>
    <clipPath id="a">
      <path fill="#fff" d="M0 0h32v32H0z"/>
    </clipPath>
  </defs>
</svg>
