<svg xmlns="http://www.w3.org/2000/svg" viewBox="0 0 360 360" xml:space="preserve">
  <path d="M344.377 125.605h-48.754V77.834L212.601 0H15.623v360h280v-51.668h48.754zm-30 152.727h-210V155.605h210z"/>
  <path d="M149.671 235.093q-3.773 0-7.36-.92-3.589-.92-6.532-2.254-2.944-1.332-5.106-2.668-2.163-1.333-2.99-2.162l-5.612 10.948q5.704 4.049 12.88 6.256 7.175 2.208 14.536 2.208 4.783-.001 9.154-1.058 4.368-1.057 7.728-3.358 3.357-2.299 5.336-6.026 1.978-3.726 1.978-8.97-.001-4.507-1.472-7.59-1.474-3.082-4.186-5.29-2.715-2.207-6.624-3.68-3.911-1.47-8.694-2.76a159 159 0 0 1-6.486-1.748q-2.807-.827-4.646-1.84-1.841-1.011-2.806-2.346-.966-1.333-.966-3.358 0-3.495 2.576-5.428t7.82-1.932q2.944 0 5.796.736 2.85.738 5.29 1.794 2.437 1.058 4.14 2.162 1.701 1.105 2.346 1.748l5.612-10.304q-4.325-2.943-10.12-5.106-5.796-2.161-12.696-2.162-4.969 0-9.292 1.334-4.326 1.335-7.59 3.91-3.267 2.576-5.106 6.44-1.841 3.864-1.84 8.832-.001 3.774 1.15 6.486 1.15 2.715 3.45 4.784 2.299 2.07 5.75 3.588t8.142 2.806q3.864 1.105 6.992 2.024 3.127.92 5.336 2.024 2.208 1.104 3.404 2.576 1.195 1.473 1.196 3.588 0 6.717-10.488 6.716m38.408.827q4.185 4.602 10.028 7.452 5.84 2.852 13.018 2.852 4.692 0 8.832-1.242a32.5 32.5 0 0 0 7.729-3.45l3.771 4.232h11.96l-8.924-10.028q4.047-4.507 6.302-10.304 2.254-5.796 2.254-12.144-.001-6.162-2.3-12.144-2.3-5.98-6.439-10.672-4.141-4.692-9.982-7.59-5.844-2.898-12.926-2.898-6.902 0-12.788 2.714-5.888 2.715-10.166 7.314-4.28 4.6-6.716 10.58-2.439 5.98-2.438 12.512 0 6.257 2.3 12.236 2.298 5.982 6.485 10.58m5.336-30.774q1.241-3.909 3.634-7.038 2.392-3.127 5.98-5.014 3.587-1.885 8.188-1.886 4.416 0 7.958 1.84 3.54 1.841 5.98 4.876 2.437 3.036 3.771 6.992a25.5 25.5 0 0 1 1.334 8.188 25.3 25.3 0 0 1-1.012 7.084q-1.013 3.498-2.852 6.44l-4.508-5.06h-11.961l9.937 11.224a18.5 18.5 0 0 1-4.002 1.61q-2.162.598-4.646.598-4.509.001-8.05-1.84t-5.98-4.876q-2.439-3.036-3.727-6.992a26.3 26.3 0 0 1-1.288-8.188 26.2 26.2 0 0 1 1.244-7.958m105.293 29.487h-33.303v-54.188h-12.697v65.32h46z"/>
</svg>
